<svg xmlns="http://www.w3.org/2000/svg" xmlns:xlink="http://www.w3.org/1999/xlink" width="1000" zoomAndPan="magnify" viewBox="0 0 750 749.999995" height="1000" preserveAspectRatio="xMidYMid meet" version="1.0"><defs><clipPath id="2e5af32a21"><path d="M 119.230469 204.488281 L 460.246094 204.488281 L 460.246094 545.503906 L 119.230469 545.503906 Z M 119.230469 204.488281 " clip-rule="nonzero"/></clipPath><clipPath id="356529c529"><path d="M 289.738281 204.488281 C 195.570312 204.488281 119.230469 280.824219 119.230469 374.996094 C 119.230469 469.164062 195.570312 545.503906 289.738281 545.503906 C 383.90625 545.503906 460.246094 469.164062 460.246094 374.996094 C 460.246094 280.824219 383.90625 204.488281 289.738281 204.488281 Z M 289.738281 204.488281 " clip-rule="nonzero"/></clipPath><clipPath id="7488537420"><path d="M 289.742188 204.488281 L 630.757812 204.488281 L 630.757812 545.503906 L 289.742188 545.503906 Z M 289.742188 204.488281 " clip-rule="nonzero"/></clipPath><clipPath id="42fa4671e4"><path d="M 460.25 204.488281 C 366.082031 204.488281 289.742188 280.824219 289.742188 374.996094 C 289.742188 469.164062 366.082031 545.503906 460.25 545.503906 C 554.417969 545.503906 630.757812 469.164062 630.757812 374.996094 C 630.757812 280.824219 554.417969 204.488281 460.25 204.488281 Z M 460.25 204.488281 " clip-rule="nonzero"/></clipPath></defs><rect x="-75" width="900" fill="#ffffff" y="-74.999999" height="899.999994" fill-opacity="1"/><rect x="-75" width="900" fill="#ffffff" y="-74.999999" height="899.999994" fill-opacity="1"/><g clip-path="url(#2e5af32a21)"><g clip-path="url(#356529c529)"><path stroke-linecap="butt" transform="matrix(0.75, 0, 0, 0.75, 119.22957, 204.486382)" fill="none" stroke-linejoin="miter" d="M 227.344959 0.00253229 C 101.787661 0.00253229 0.00119775 101.783787 0.00119775 227.346293 C 0.00119775 352.903591 101.787661 454.690054 227.344959 454.690054 C 352.902257 454.690054 454.68872 352.903591 454.68872 227.346293 C 454.68872 101.783787 352.902257 0.00253229 227.344959 0.00253229 Z M 227.344959 0.00253229 " stroke="#5271ff" stroke-width="60" stroke-opacity="1" stroke-miterlimit="4"/></g></g><g clip-path="url(#7488537420)"><g clip-path="url(#42fa4671e4)"><path stroke-linecap="butt" transform="matrix(0.75, 0, 0, 0.75, 289.743183, 204.486382)" fill="none" stroke-linejoin="miter" d="M 227.342434 0.00253229 C 101.785136 0.00253229 -0.00132724 101.783787 -0.00132724 227.346293 C -0.00132724 352.903591 101.785136 454.690054 227.342434 454.690054 C 352.899732 454.690054 454.686195 352.903591 454.686195 227.346293 C 454.686195 101.783787 352.899732 0.00253229 227.342434 0.00253229 Z M 227.342434 0.00253229 " stroke="#ff5757" stroke-width="60" stroke-opacity="1" stroke-miterlimit="4"/></g></g></svg>